<svg xmlns="http://www.w3.org/2000/svg" width="22" height="22" viewBox="0 0 22 22">
  <path id="icons8-twitter_squared" d="M24,4H6A2,2,0,0,0,4,6V24a2,2,0,0,0,2,2H24a2,2,0,0,0,2-2V6A2,2,0,0,0,24,4Zm-3.32,7.989c.006.13.009.261.009.392A8.616,8.616,0,0,1,7.426,19.639a6.17,6.17,0,0,0,.723.042,6.076,6.076,0,0,0,3.762-1.3,3.034,3.034,0,0,1-2.83-2.1,3.052,3.052,0,0,0,1.369-.052,3.03,3.03,0,0,1-2.43-2.97V13.22a3.019,3.019,0,0,0,1.372.379,3.033,3.033,0,0,1-.937-4.044A8.6,8.6,0,0,0,14.7,12.72a3.072,3.072,0,0,1-.078-.69,3.03,3.03,0,0,1,5.24-2.072,6.071,6.071,0,0,0,1.924-.735A3.037,3.037,0,0,1,20.453,10.9a6.044,6.044,0,0,0,1.74-.477A6.209,6.209,0,0,1,20.68,11.989Z" transform="translate(-4 -4)" fill="#56853c" opacity="0.87"/>
</svg>
