<svg width="529" height="583" viewBox="0 0 529 583" fill="none" xmlns="http://www.w3.org/2000/svg">
<g clip-path="url(#clip0_3_13)">
<path opacity="0.95" d="M44.4569 555.228C46.7815 547.281 49.9313 539.599 53.855 532.308C55.8312 528.694 58.0685 525.229 60.549 521.94C61.4671 521.767 62.3903 521.582 63.3232 521.395C68.5123 520.358 73.806 519.12 79.2043 517.682C78.813 518.04 78.4189 518.385 78.0345 518.757C72.2056 524.465 67.0703 530.84 62.735 537.751C58.8422 543.918 55.5293 550.433 52.839 557.212C50.5933 556.726 48.3658 556.204 46.1566 555.649L45.0233 555.366L44.4569 555.228ZM35.399 552.702C33.6993 552.195 32.0131 551.67 30.3504 551.134C27.0367 550.07 23.7988 548.963 20.6369 547.814C21.3801 541.997 22.4452 536.225 23.8272 530.526C22.4443 536.226 21.3784 541.998 20.6345 547.816C19.571 547.43 18.5171 547.041 17.4728 546.649C11.9409 544.572 6.69376 542.416 1.82326 540.282L1.88322 539.988C2.81901 535.52 3.88664 530.903 5.14345 526.292C10.1725 526.434 15.5867 526.441 21.3346 526.25C22.562 526.207 23.8045 526.156 25.0623 526.097C30.3007 525.846 35.7863 525.421 41.4836 524.789C43.8214 524.528 46.1925 524.232 48.5968 523.9C52.499 523.356 56.4835 522.704 60.5502 521.944C58.0697 525.232 55.8324 528.697 53.8562 532.311C49.9325 539.603 46.7827 547.285 44.4581 555.232C41.3925 554.44 38.3723 553.591 35.3964 552.7L35.399 552.702ZM62.735 537.751C67.0696 530.841 72.2039 524.467 78.0316 518.76C78.416 518.388 78.8101 518.043 79.2014 517.685C80.5817 517.314 81.9685 516.928 83.3618 516.529C110.378 508.796 135.835 496.401 158.583 479.901C159.254 479.415 159.925 478.913 160.596 478.416C173.879 481.491 187.51 482.789 201.134 482.278C206.277 482.102 211.406 481.644 216.498 480.907C215.932 481.63 215.362 482.352 214.788 483.073C212.61 485.815 210.375 488.554 208.085 491.288C184.879 488.651 161.177 491.127 137.462 501.971C112.393 513.435 88.9852 533.739 71.6435 560.345C65.9072 559.692 60.2121 558.753 54.6097 557.592C54.0218 557.47 53.4292 557.337 52.8412 557.211C55.5309 550.433 58.843 543.918 62.735 537.751ZM137.46 501.976C161.176 491.133 184.877 488.651 208.084 491.293C207.554 491.925 207.02 492.551 206.479 493.181C204.024 496.065 201.506 498.927 198.926 501.767C179.921 500.448 161.001 502.034 140.849 512.727C120.657 523.443 102.31 540.302 87.8616 561.365C83.1593 561.326 78.4527 561.048 73.7605 560.576C73.0504 560.502 72.345 560.429 71.6375 560.349C88.9852 533.739 112.393 513.435 137.46 501.976ZM140.853 512.728C161.005 502.035 179.925 500.449 198.93 501.768C197.646 503.176 196.347 504.578 195.032 505.974C177.846 524.172 157.986 540.736 135.537 551.58C122.001 558.122 107.298 560.967 92.3972 561.328C90.887 561.364 89.3757 561.377 87.8633 561.366C102.316 540.298 120.667 523.442 140.855 512.724L140.853 512.728ZM261.881 565.913C254.605 561.926 247.768 557.184 241.484 551.765C241.988 551.923 242.494 552.089 243 552.245C242.493 552.088 241.988 551.922 241.484 551.765C227.67 539.992 217.228 524.763 211.225 507.633C210.965 506.875 210.709 506.111 210.468 505.344L212.155 503.069C219.74 503.993 227.387 505.145 235.178 506.147C243.481 507.364 251.894 507.644 260.259 506.981C261.948 508.247 263.697 509.499 265.506 510.738C258.872 511.834 252.134 512.16 245.426 511.709C235.789 511.14 226.382 509.733 217.036 508.424C226.382 509.733 235.788 511.141 245.426 511.709C252.134 512.16 258.873 511.834 265.507 510.738C270.191 513.953 275.071 516.872 280.119 519.479C280.904 519.881 281.691 520.283 282.491 520.667C284.791 521.79 287.149 522.845 289.565 523.832C277.531 532.065 263.336 533.585 251.867 527.802C263.336 533.583 277.533 532.061 289.565 523.832C290.286 524.125 291.012 524.411 291.744 524.689C294.225 525.639 296.763 526.51 299.357 527.28C300.114 527.507 300.882 527.724 301.651 527.932C303.791 528.516 305.972 529.023 308.181 529.463C307.287 530.278 306.381 531.076 305.463 531.826C306.382 531.071 307.287 530.278 308.181 529.463C308.957 529.617 309.738 529.765 310.526 529.901C314.191 530.534 317.892 530.941 321.608 531.118C319.144 534.626 316.403 537.931 313.413 541.002C316.404 537.929 319.145 534.622 321.61 531.112C324.369 531.243 327.168 531.24 330.008 531.102C333.534 530.932 337.046 530.546 340.526 529.947C343.208 529.484 345.909 528.937 348.63 528.307C346.665 533.139 344.622 537.928 342.34 542.587C336.498 554.702 328.903 565.89 319.8 575.791C317.976 577.744 316.096 579.611 314.161 581.393C306.867 580.815 299.634 579.636 292.535 577.867C281.845 575.216 271.542 571.196 261.881 565.908L261.881 565.913ZM250.908 554.479C248.296 553.828 245.73 553.097 243.241 552.321C245.731 553.093 248.294 553.823 250.908 554.475L250.908 554.479ZM261.64 545.524C261.281 545.435 260.925 545.341 260.569 545.242C260.926 545.333 261.28 545.43 261.639 545.52L261.64 545.524ZM229.119 526.698C230.98 527.201 232.796 527.854 234.551 528.652C243.042 532.595 250.227 539.42 259.118 542.394C264.777 544.267 270.768 544.924 276.698 544.322C270.768 544.923 264.777 544.266 259.118 542.393C250.227 539.42 243.042 532.595 234.551 528.652C232.796 527.854 230.98 527.201 229.119 526.698C227.635 526.281 223.833 525.579 224.402 523.297C223.833 525.577 227.633 526.28 229.118 526.696L229.119 526.698ZM258.293 538.897C253.328 537.636 246.783 535.38 244.366 530.683C246.776 535.377 253.325 537.633 258.291 538.894L258.293 538.897ZM260.331 537.021C257.881 536.411 255.497 535.56 253.216 534.479C255.497 535.559 257.88 536.409 260.33 537.019L260.331 537.021ZM247.622 531.103C248.009 532.417 251.545 533.647 252.538 534.143C251.545 533.647 248.008 532.418 247.622 531.103C246.932 528.751 247.562 528.32 248.456 528.376C247.562 528.324 246.931 528.755 247.623 531.106L247.622 531.103ZM258.021 532.562C254.811 531.758 251.735 530.49 248.89 528.798C251.735 530.49 254.812 531.758 258.023 532.561L258.021 532.562ZM233.294 516.646C230.402 516.749 225.311 517.044 223.09 520.482C225.311 517.044 230.401 516.752 233.294 516.646ZM244.723 526.346C244.746 526.322 244.769 526.297 244.792 526.274C244.771 526.296 244.748 526.322 244.724 526.349L244.723 526.346ZM251.324 527.515C251.323 527.039 251.128 526.583 250.704 526.477C251.132 526.586 251.328 527.042 251.326 527.517L251.324 527.515ZM248.755 526.004C248.384 525.876 248.004 525.745 247.622 525.65C248.006 525.748 248.387 525.878 248.757 526.007L248.755 526.004ZM241.071 520.487C241.077 520.461 241.084 520.434 241.091 520.408C241.087 520.438 241.08 520.464 241.073 520.492L241.071 520.487ZM240.796 520.284C239.944 519.939 239.069 519.652 238.179 519.425C239.069 519.654 239.943 519.942 240.795 520.289L240.796 520.284ZM244.992 519.778C243.075 518.651 241.011 517.796 238.858 517.24C241.012 517.796 243.079 518.65 244.997 519.778L244.992 519.778ZM300.285 529.06C300.552 528.848 300.816 528.629 301.079 528.408C300.814 528.627 300.553 528.847 300.285 529.06ZM319.801 575.791C328.904 565.89 336.498 554.702 342.34 542.587C344.621 537.928 346.665 533.139 348.63 528.307C349.33 528.146 350.029 527.978 350.732 527.809C354.733 526.831 358.75 525.683 362.785 524.365C363.49 524.136 364.193 523.905 364.897 523.666C390.75 514.801 414.278 500.236 433.739 481.048C434.413 480.375 435.083 479.699 435.748 479.014C439.09 475.57 442.281 471.978 445.319 468.238C445.837 467.6 446.348 466.964 446.854 466.32C452.941 469.079 458.825 472.266 464.461 475.858C464.127 476.552 463.787 477.244 463.446 477.936C461.981 480.926 460.453 483.933 458.862 486.955C458.5 487.638 458.146 488.322 457.78 489.009C456.177 492.009 454.511 495.023 452.781 498.051C450.517 502.022 448.163 506.009 445.683 510.024C445.616 510.135 445.545 510.241 445.478 510.351C442.209 515.63 438.666 520.734 434.863 525.642C422.916 530.159 411.693 540.174 404.282 554.561C404.001 555.109 403.732 555.661 403.458 556.211C396.26 561.404 388.576 565.89 380.514 569.605C375.418 571.949 370.18 573.971 364.83 575.658C368.824 568.756 372.598 561.688 376.153 554.454C388.089 530.143 398.434 504.825 422.064 497.741C426.857 496.306 431.838 495.597 436.842 495.638C431.838 495.597 426.857 496.306 422.063 497.741C398.434 504.825 388.089 530.143 376.152 554.454C372.605 561.677 368.83 568.745 364.829 575.658C355.442 578.617 345.756 580.526 335.949 581.351C335.093 581.423 334.236 581.487 333.377 581.544C344.091 566.334 353.034 548.773 359.951 531.437C360.422 530.259 360.893 529.08 361.365 527.9C360.892 529.078 360.421 530.257 359.95 531.437C353.034 548.773 344.09 566.337 333.377 581.544C327.839 581.901 322.285 581.915 316.746 581.584C315.884 581.53 315.025 581.468 314.167 581.399C316.095 579.615 317.973 577.746 319.801 575.791ZM316.74 581.576C330.954 567.848 341.712 549.622 349.927 529.776C341.716 549.623 330.955 567.843 316.74 581.576ZM445.418 496.37C447.068 496.644 448.707 496.984 450.336 497.39C448.711 496.983 447.072 496.643 445.418 496.369L445.418 496.37ZM456.832 488.6C450.69 485.883 444.338 483.666 437.84 481.97C444.339 483.664 450.69 485.88 456.833 488.595L456.832 488.6ZM456.46 485.908C450.63 483.342 444.605 481.248 438.441 479.643C444.605 481.246 450.632 483.339 456.462 485.903L456.46 485.908ZM404.277 554.556C411.688 540.17 422.912 530.155 434.858 525.638C431.328 530.194 427.556 534.557 423.56 538.71C421.316 541.042 419.031 543.273 416.706 545.405C412.501 549.26 408.073 552.865 403.446 556.201C403.727 555.655 403.995 555.103 404.277 554.556ZM218.161 494.952L219.598 493.014L228.928 480.423L230.52 478.274C230.52 478.274 230.914 478.801 231.675 479.741C236.851 486.028 242.496 491.915 248.562 497.349C249.456 498.155 250.38 498.969 251.334 499.793C254.074 502.157 257.053 504.577 260.257 506.97C251.891 507.633 243.478 507.353 235.176 506.136C227.386 505.135 219.738 503.982 212.152 503.058L218.161 494.952ZM171.574 469.836C171.964 469.514 172.338 469.192 172.726 468.871C174.004 467.803 175.271 466.741 176.527 465.683C190.441 468.86 204.769 469.819 218.982 468.525C221.516 468.286 224.057 467.945 226.595 467.522C225.526 468.991 224.44 470.467 223.337 471.948C221.125 474.92 218.845 477.908 216.496 480.911C211.404 481.648 206.275 482.106 201.132 482.282C187.508 482.793 173.877 481.495 160.594 478.42C164.271 475.698 167.933 472.851 171.575 469.834L171.574 469.836ZM192.957 451.286C196.918 447.685 200.703 444.151 204.314 440.684C221.185 440.811 238.66 435.652 254.694 425.707C251.279 431.015 247.444 437.012 243.192 443.461C238.228 450.994 232.687 459.138 226.594 467.526C224.056 467.948 221.514 468.289 218.981 468.529C204.768 469.823 190.44 468.864 176.526 465.687C182.323 460.777 187.8 455.975 192.959 451.279L192.957 451.286ZM298.556 465.105C298.208 464.701 297.876 464.283 297.559 463.852C302.43 458.161 307.242 452.415 312.145 447.051C320.194 438.251 328.474 429.628 337.059 421.631C341.814 420.083 345.155 416.82 347.582 412.314C350.179 407.493 351.735 401.249 352.865 394.152C352.997 393.328 353.123 392.491 353.243 391.643C355.886 390.138 358.179 387.552 360.26 384.993C363.639 380.841 366.697 376.617 370.998 374.096C379.473 369.129 394.57 371.235 400.096 359.37C400.644 359.43 401.203 359.486 401.774 359.537C407.157 359.991 412.561 360.137 417.96 359.976L419.657 359.926C423.115 359.81 426.828 359.6 430.823 359.274C430.823 359.274 430.245 363.788 429.349 370.069C428.669 371.282 427.913 372.45 427.085 373.567C420.274 382.697 410.649 386.456 401.897 390.682C371.45 405.387 347.739 429.832 324.894 459.675C321.733 463.803 318.521 467.959 315.214 471.999C313.868 472.058 312.519 471.991 311.185 471.798C310.356 471.682 309.533 471.522 308.72 471.321C304.756 470.383 301.195 468.203 298.558 465.099L298.556 465.105ZM301.656 461.55C322.495 438.043 344.414 414.187 369.313 398.685C344.415 414.184 322.495 438.041 301.657 461.544L301.656 461.55ZM389.406 386.138C399.146 382.232 414.387 375.643 417.456 363.256C414.393 375.637 399.147 382.226 389.408 386.131L389.406 386.138ZM324.899 459.677C347.743 429.834 371.456 405.388 401.902 390.684C410.651 386.462 420.279 382.704 427.091 373.57C427.918 372.452 428.674 371.284 429.355 370.071C429.022 372.4 428.647 374.976 428.242 377.651C427.246 384.253 426.071 391.479 424.923 397.23C417.009 401.544 409.194 405.979 401.651 410.943C390.245 412.679 376.255 416.324 365.682 425.943C348.595 441.483 337.158 465.67 320.83 470.973C319.015 471.565 317.13 471.91 315.224 471.999C318.526 467.954 321.738 463.798 324.9 459.665L324.899 459.677ZM325.587 464.875C337.745 449.149 349.601 433.486 363.939 420.83C349.601 433.478 337.74 449.142 325.587 464.868L325.587 464.875ZM233.465 410.346C237.977 405.234 242.101 400.338 245.88 395.691C250 391.946 253.457 387.531 256.105 382.634C260.532 376.775 264.38 371.418 267.795 366.595C281.184 347.691 287.846 337.104 296.17 337.429C298.663 337.526 300.51 339.151 301.922 341.863C304.855 347.498 305.907 357.874 306.93 369.364C308.127 382.832 309.291 397.807 313.39 408.449C306.664 418.659 298.682 427.984 289.631 436.205C288.972 430.269 288.481 424.199 287.694 418.51C287.338 415.948 287.017 413.539 286.701 411.306C285.957 406.026 285.248 401.771 284.169 398.989C281.759 392.784 277.507 393.959 266.94 407.571C263.772 411.647 259.685 417.941 254.702 425.696C238.667 435.642 221.194 440.8 204.322 440.673C215.563 429.88 225.176 419.741 233.465 410.346ZM291.545 448.84C291.395 448.14 291.253 447.431 291.12 446.715C290.765 444.831 290.47 442.898 290.204 440.936C289.993 439.377 289.804 437.799 289.63 436.212C298.679 427.991 306.659 418.667 313.384 408.458C313.923 409.873 314.546 411.255 315.252 412.595C316.147 414.312 317.244 415.916 318.521 417.372C311.049 427.464 302.525 436.733 293.093 445.023C302.526 436.732 311.051 427.46 318.524 417.366C318.941 417.828 319.381 418.268 319.844 418.685C322.737 421.352 326.563 422.771 330.495 422.638C332.723 422.635 334.939 422.293 337.064 421.623C328.48 429.62 320.2 438.243 312.15 447.043C307.246 452.405 302.435 458.155 297.564 463.844C294.595 459.833 292.778 454.624 291.542 448.837L291.545 448.84ZM206.431 413.216C206.901 411.119 207.436 408.876 208.035 406.488C212.92 407.498 217.945 407.636 222.877 406.897L217.067 413.965L203.227 430.798C203.227 430.798 203.99 424.068 206.431 413.216ZM446.852 466.317C450.704 461.419 454.246 456.285 457.458 450.946C457.922 450.174 458.381 449.394 458.832 448.609C460.74 445.296 462.517 441.902 464.164 438.424C464.443 437.827 464.722 437.223 464.995 436.624C468.842 428.184 471.805 419.368 473.836 410.317C474.059 409.331 474.269 408.338 474.468 407.339C479.381 403.55 484.603 400.177 490.077 397.255C489.945 398.053 489.817 398.848 489.677 399.654C488.878 404.254 487.921 408.946 486.804 413.729C483.187 415.557 479.335 418.256 478.205 422.793C479.337 418.254 483.187 415.557 486.804 413.729C486.417 415.393 486.002 417.069 485.572 418.753C484.844 421.619 484.054 424.511 483.203 427.429C482.754 428.972 482.29 430.523 481.809 432.082C480.982 434.75 480.106 437.438 479.18 440.145C476.737 439.683 474.287 439.27 471.875 438.688C474.287 439.27 476.739 439.682 479.18 440.145C478.932 440.87 478.673 441.602 478.416 442.332C477.292 445.539 476.096 448.773 474.827 452.035C474.533 452.804 474.237 453.576 473.927 454.345C471.121 461.395 467.963 468.564 464.453 475.85C458.819 472.26 452.937 469.074 446.852 466.316L446.852 466.317ZM474.609 451.942C473.225 451.369 471.799 450.904 470.343 450.551C471.798 450.904 473.224 451.368 474.607 451.941L474.609 451.942ZM470.823 440.792C468.601 440.269 466.441 439.512 464.378 438.535C466.441 439.512 468.6 440.268 470.822 440.791L470.823 440.792ZM469.927 438.221C468.353 437.85 466.81 437.362 465.309 436.76C466.808 437.361 468.351 437.849 469.923 438.219L469.927 438.221ZM219.849 370.439C221.181 367.168 222.616 363.845 224.155 360.468C235.924 355.965 241.435 340.172 244.767 326.811C241.436 340.173 235.924 355.965 224.155 360.468C230.125 347.3 237.337 334.731 245.691 322.931C248.778 318.602 252.088 314.343 255.62 310.153C254.433 316.155 253.238 322.158 251.761 328.088C253.239 322.158 254.433 316.155 255.62 310.153C259.938 305.04 264.535 300.168 269.391 295.561C270.154 294.838 270.919 294.124 271.687 293.412C274.016 291.236 276.347 289.112 278.682 287.04C332.325 239.252 382.848 217.811 370.465 193.275C369.56 191.251 368.06 189.55 366.164 188.401C364.172 187.381 361.872 187.139 359.711 187.719C346.46 190.599 325.914 214.41 304.31 228.103C301.319 230.021 298.207 231.746 294.996 233.266C295.134 233.022 295.273 232.78 295.411 232.537C295.272 232.781 295.134 233.022 294.996 233.266C289.928 235.779 284.417 237.276 278.774 237.673C278.774 237.673 278.421 235.488 278.229 231.592C277.899 224.087 278.271 216.567 279.338 209.131C291.01 183.905 306.309 161.865 326.516 152.244C317.618 160.237 307.608 171.942 295.468 190.993C295.971 191.354 296.558 191.581 297.173 191.653C301.573 192.488 315.842 191.079 354.973 161.248C355.821 160.602 356.652 159.975 357.468 159.362C360.455 157.129 363.237 155.123 365.816 153.344C365.996 153.45 366.166 153.543 366.338 153.645C366.166 153.543 365.992 153.449 365.816 153.344C370.521 149.965 375.536 147.039 380.794 144.608C389.794 140.754 394.255 142.743 395.761 149.941C396.695 154.41 396.491 160.887 395.528 169.225C395.203 172.048 394.796 175.081 394.305 178.324C393.631 182.842 392.817 187.763 391.899 193.067C391.502 195.367 391.088 197.735 390.656 200.173C390.039 203.68 389.393 207.329 388.718 211.12C386.704 222.48 381.001 233.025 372.856 243.165C368.28 248.774 363.331 254.066 358.041 259.006C349.691 266.915 340.182 274.712 330.17 282.608C324.185 287.326 318.017 292.081 311.812 296.917C322.692 271.466 342.698 251.115 364.672 244.874C342.701 251.115 322.692 271.466 311.812 296.917C298.366 307.394 284.712 318.253 272.25 329.979C270.494 331.632 268.762 333.304 267.054 334.994C246.875 354.968 230.554 377.518 224.574 404.834L222.877 406.897C217.945 407.636 212.92 407.498 208.035 406.488C211.137 394.214 215.083 382.168 219.846 370.437L219.849 370.439ZM277.625 291.347C277.842 290.416 278.067 289.485 278.298 288.555C278.065 289.484 277.84 290.414 277.622 291.345L277.625 291.347ZM330.169 282.608C331.856 280.262 333.661 278.003 335.577 275.841C333.66 278.003 331.853 280.261 330.166 282.607L330.169 282.608ZM389.63 199.472C382.776 194.801 375.752 190.743 368.196 188.85C375.756 190.744 382.781 194.8 389.635 199.472L389.63 199.472ZM370.518 182.044C370.697 182.089 370.877 182.137 371.056 182.187C370.877 182.138 370.698 182.091 370.518 182.044ZM389.362 177.505C380.872 175.369 373.899 169.486 366.565 164.522C373.904 169.485 380.876 175.368 389.367 177.504L389.362 177.505ZM362.003 161.627C360.539 160.776 359.023 160.019 357.462 159.361C359.021 160.018 360.537 160.775 362 161.625L362.003 161.627ZM392.016 168.595C384.01 166.586 377.305 160.938 370.31 156.191C377.302 160.941 384.004 166.589 392.011 168.597L392.016 168.595ZM390.3 149.358C387.719 148.685 385.261 147.607 383.017 146.166C385.259 147.607 387.715 148.685 390.293 149.36L390.3 149.358ZM256.1 382.633C253.453 387.529 249.996 391.943 245.877 395.688C249.598 391.102 252.991 386.746 256.1 382.633ZM424.917 397.227C423.992 401.865 423.082 405.544 422.297 407.157C422.183 407.418 422.028 407.66 421.837 407.873C421.088 408.395 420.216 408.715 419.306 408.802C415.807 409.476 409.312 409.777 401.646 410.94C409.189 405.974 417.005 401.539 424.917 397.227ZM353.962 386.053C354.08 385.027 354.198 383.989 354.317 382.939C354.414 382.053 354.51 381.159 354.606 380.259C354.721 379.174 354.838 378.088 354.947 376.991C355.985 375.79 357.022 374.591 358.06 373.393C361.974 366.214 365.753 358.535 370.344 352.047C371.529 350.322 372.961 348.781 374.595 347.474C374.844 348.041 375.139 348.588 375.478 349.107C377.542 352.267 382.058 355.861 391.803 358.036C392.545 358.204 393.321 358.361 394.124 358.512C393.777 358.985 393.396 359.432 392.983 359.849C388.496 364.351 382.209 363.831 377.132 366.284C382.21 363.831 388.496 364.352 392.984 359.849C393.397 359.432 393.778 358.985 394.124 358.512C395.948 358.847 397.941 359.132 400.102 359.37C394.575 371.234 379.478 369.128 371.004 374.096C366.702 376.617 363.644 380.842 360.266 384.992C358.185 387.551 355.883 390.136 353.248 391.642C353.502 389.823 353.739 387.96 353.963 386.053L353.962 386.053ZM353.962 386.053C356.16 385.447 358.183 384.329 359.866 382.791C358.183 384.329 356.16 385.447 353.963 386.053L353.962 386.053ZM355.822 378.85C356.268 378.333 356.72 377.812 357.168 377.293C356.722 377.811 356.269 378.331 355.824 378.845L355.822 378.85ZM357.244 377.316C357.219 377.31 357.192 377.304 357.167 377.297C357.198 377.303 357.218 377.31 357.244 377.316ZM361.261 372.559C361.4 372.402 361.5 372.216 361.553 372.013C361.501 372.216 361.403 372.403 361.266 372.56L361.261 372.559ZM367.071 361.057L362.132 369.86C363.778 366.926 365.425 363.992 367.072 361.057C369.442 356.843 371.828 352.013 375.394 349.173C371.828 352.013 369.443 356.843 367.072 361.057L367.071 361.057ZM476.511 393.139C476.585 392.328 476.645 391.508 476.708 390.693C481.826 387.799 486.967 384.982 492.046 381.943C491.966 382.775 491.885 383.608 491.796 384.447C491.359 388.632 490.786 392.901 490.078 397.254C484.604 400.176 479.382 403.549 474.469 407.339C475.404 402.645 476.085 397.905 476.511 393.139ZM355.48 371.915C355.645 370.393 355.812 368.864 355.991 367.324C357.429 354.945 359.506 342.146 364.265 330.833C364.85 329.438 365.47 328.066 366.144 326.721C366.276 326.462 366.411 326.201 366.545 325.94C371.273 316.64 377.176 307.988 384.111 300.194C385.62 298.509 387.172 296.878 388.767 295.299C397.714 286.458 407.915 279.53 418.648 275.899C422.107 274.719 425.679 273.897 429.306 273.449C440.122 272.149 451.208 274.478 461.886 281.765C467.164 285.486 471.719 290.136 475.33 295.49C477.245 298.257 478.973 301.148 480.503 304.145C486.88 316.566 491.213 332.614 492.505 351.494C487.419 356.879 481.923 361.861 476.067 366.396C471.097 332.518 448.553 316.334 425.762 313.727C423.746 313.498 421.719 313.374 419.69 313.358C409.067 313.136 398.618 316.073 389.666 321.797C388.821 322.361 388.001 322.951 387.206 323.568C382.6 327.05 378.852 331.539 376.245 336.691C375.567 338.054 374.978 339.46 374.482 340.9C374.273 341.504 374.077 342.112 373.901 342.735C373.661 344.349 373.904 345.998 374.599 347.475C372.966 348.783 371.534 350.324 370.349 352.048C365.758 358.536 361.98 366.215 358.065 373.395C357.026 374.593 355.988 375.792 354.952 376.992C355.125 375.313 355.299 373.622 355.483 371.916L355.48 371.915ZM364.647 330.424C369.208 325.618 374.693 322.584 381.41 322.734C374.696 322.584 369.211 325.618 364.65 330.425L364.647 330.424ZM425.277 313.175C418.258 305.113 408.974 299.351 398.635 296.638C408.976 299.352 418.261 305.114 425.282 313.177L425.277 313.175ZM399.579 301.718C399.093 301.579 398.604 301.447 398.111 301.324C398.607 301.449 399.098 301.581 399.584 301.72L399.579 301.718ZM453.533 311.584C450.453 311.119 447.467 310.166 444.687 308.761C447.468 310.167 450.456 311.121 453.538 311.587L453.533 311.584ZM475.864 307.109C477.267 306.323 478.63 305.466 479.946 304.541C478.631 305.467 477.271 306.325 475.868 307.112L475.864 307.109ZM454.775 300.067C444.644 297.523 437.612 287.295 431.207 276.545C437.617 287.299 444.646 297.526 454.781 300.07L454.775 300.067ZM477.071 380.97C477.075 379.193 477.017 377.467 476.937 375.766C476.784 372.506 476.498 369.369 476.059 366.394C481.92 361.862 487.419 356.883 492.509 351.5C492.749 354.976 492.882 358.545 492.91 362.206C492.954 368.524 492.665 375.105 492.043 381.951C486.966 384.986 481.823 387.803 476.704 390.7C476.939 387.496 477.07 384.255 477.071 380.97ZM405.325 240.679C402.746 232.185 406.238 222.309 410.692 214.19C411.725 212.304 412.811 210.519 413.887 208.861C415.817 210.033 417.773 211.113 419.767 212.069C419.745 215.148 420.938 218.111 423.087 220.317C425.056 222.195 427.404 223.631 429.973 224.529C433.908 226.049 437.452 224.951 440.546 222.493C448.676 216.043 453.655 200.244 454.225 198.118C454.668 196.477 456.214 196.582 457.489 196.993C458.003 211.118 452.856 218.265 445.666 221.151C452.858 218.261 458.005 211.115 457.49 196.994C458.13 197.205 458.747 197.485 459.328 197.827C457.773 210.344 460.453 221.573 471.781 221.657C477.481 221.702 482.893 214.946 486.865 208.22C489.317 204.01 491.453 199.625 493.257 195.1C493.407 195.71 493.552 196.322 493.71 196.928C495.211 205.701 494.483 214.71 491.592 223.127C487.213 236.216 478.676 246.041 471.434 246.6C459.461 247.531 444.587 236.778 444.587 236.778C439.154 248.456 426.416 254.303 416.696 251.879C411.548 250.598 407.239 246.984 405.325 240.679ZM338.906 109.369C340.47 108.101 342.071 106.84 343.71 105.586C344.022 107.289 344.685 108.908 345.659 110.34C347.139 112.431 349.357 113.349 351.709 113.936C349.357 113.349 347.136 112.43 345.659 110.34C344.685 108.908 344.022 107.289 343.71 105.586C347.913 102.37 352.368 99.2007 357.119 96.0886C354.601 89.0891 352.757 81.8653 351.612 74.5154C351.163 71.5395 350.919 68.5365 350.879 65.5273C358.384 55.3887 367.75 46.7713 378.477 40.1355C391.574 32.0745 405.313 27.6117 419.055 23.1209C419.235 25.1816 419.333 27.3826 419.331 29.7206C419.32 33.5176 419.049 37.3095 418.519 41.0694C413.037 44.87 407.463 48.4046 401.791 51.6218C394.186 55.9352 386.366 59.5981 379.054 64.8956C386.365 59.5979 394.187 55.9343 401.791 51.6218C407.463 48.4046 413.037 44.87 418.519 41.0694C418.393 41.9654 418.252 42.8747 418.097 43.7972C416.745 51.4967 414.546 59.0231 411.54 66.2395C411.287 66.6649 411.038 67.0939 410.794 67.5264C411.04 67.0942 411.288 66.6653 411.54 66.2395C409.797 70.4761 407.84 74.6212 405.675 78.6586C402.692 84.215 399.395 89.5969 395.799 94.7782C391.414 101.229 386.573 107.358 381.312 113.118C381.046 112.64 380.799 112.18 380.566 111.786C380.131 111.05 379.701 110.345 379.262 109.681C379.701 110.345 380.128 111.049 380.565 111.786C380.799 112.18 381.047 112.637 381.312 113.118C380.829 113.641 380.347 114.154 379.867 114.65C376.812 117.853 373.544 120.846 370.086 123.608C368.175 125.128 366.301 126.487 364.458 127.738C351.919 136.227 340.614 139.564 326.502 152.242C306.295 161.863 290.996 183.904 279.325 209.128C282.917 183.332 296.006 144.182 338.906 109.369ZM365.096 104.706C362.963 104.323 360.992 103.31 359.439 101.797C360.994 103.314 362.967 104.33 365.105 104.714L365.096 104.706ZM374.256 104.859C373.211 104.35 372.113 103.958 370.983 103.692C372.118 103.961 373.219 104.355 374.266 104.869L374.256 104.859ZM364.016 101.927C359.949 100.283 359.537 96.5028 360.536 92.4635C359.548 96.5098 359.961 100.289 364.028 101.934L364.016 101.927ZM382.003 99.3124C379.47 98.6617 377.166 97.32 375.35 95.4368C377.169 97.3247 379.477 98.6692 382.016 99.3197L382.003 99.3124ZM374.877 94.8528C372.966 92.2679 372.75 88.7665 373.603 85.3567C372.762 88.7736 372.977 92.2747 374.887 94.8596L374.877 94.8528ZM382.575 96.7237C379.5 95.951 376.59 94.6451 375.525 90.8147C376.599 94.6526 379.51 95.9585 382.585 96.7305L382.575 96.7237ZM399.213 67.3266C396.538 74.5069 393.865 81.6863 391.192 88.865C393.863 81.6839 396.537 74.5045 399.213 67.3266ZM400.714 61.4781C400.629 61.4957 400.547 61.5259 400.47 61.5678C395.946 64.4819 391.422 67.3953 386.899 70.3081C391.42 67.3898 395.944 64.4764 400.47 61.5678C400.546 61.5256 400.628 61.4953 400.713 61.4779C400.721 61.4449 400.732 61.4131 400.744 61.3825C400.734 61.4172 400.724 61.449 400.714 61.4781ZM386.001 73.2885C390.226 70.4782 394.495 67.788 398.75 65.0687C394.493 67.7865 390.225 70.478 386.001 73.2885ZM400.12 65.9967C399.418 66.6399 398.64 65.8997 398.745 65.0662C398.645 65.9018 399.423 66.6411 400.125 65.9979L400.12 65.9967ZM402.896 59.7516C402.931 59.5963 402.926 59.4345 402.881 59.2817C402.836 59.1289 402.753 58.9901 402.639 58.8786C402.754 58.9901 402.839 59.1294 402.885 59.283C402.93 59.4366 402.935 59.5994 402.9 59.7557L402.896 59.7516ZM401.088 59.8873C401.096 59.821 401.108 59.7542 401.124 59.6892C401.109 59.7551 401.098 59.8218 401.091 59.889L401.088 59.8873ZM413.886 208.858C416.364 205.023 419.118 201.373 422.126 197.937C421.071 202.883 419.633 207.732 419.766 212.066C417.777 211.113 415.822 210.032 413.891 208.861L413.886 208.858ZM493.258 195.103L493.311 194.961C493.463 195.618 493.592 196.268 493.712 196.93C493.558 196.327 493.413 195.714 493.263 195.105L493.258 195.103ZM433.892 169.583C416.404 158.473 435.572 123.699 464.244 95.7948C461.697 101.991 459.552 108.346 457.821 114.818C459.552 108.346 461.697 101.991 464.243 95.7946C467.452 92.6731 470.778 89.6407 474.188 86.7313C491.519 71.9489 510.94 60.4909 527.458 57.9906C527.458 57.9906 462.925 90.7858 464.065 130.175C464.065 130.175 467.85 144.807 482.762 139.92C482.762 139.92 473.038 164.042 456.957 171.619C457 153.357 458.25 135.018 462.667 117.302C458.25 135.018 457.003 153.358 456.957 171.619C455.041 172.534 453.011 173.185 450.92 173.556C447.983 174.062 444.972 173.943 442.083 173.208C439.177 172.45 436.412 171.227 433.896 169.589L433.892 169.583ZM352.796 53.5574C352.796 53.5574 372.368 44.357 385.624 35.1524C392.682 30.2473 400.102 21.219 405.499 13.8498C406.19 12.9037 406.847 11.9901 407.469 11.1091C410.474 10.4842 413.482 10.0094 416.492 9.6846C416.705 10.3776 416.919 11.1175 417.125 11.9036C418.094 15.5825 418.741 19.3388 419.058 23.1299C405.316 27.6206 391.576 32.0832 378.48 40.1444C367.753 46.7803 358.387 55.3976 350.882 65.5362C350.734 61.4568 351.384 57.3877 352.796 53.5574ZM413.053 2.75268C413.282 2.38824 413.406 2.18735 413.406 2.18735C413.406 2.18735 413.552 2.42979 413.8 2.90404C414.889 5.08019 415.789 7.34608 416.489 9.67659C413.479 9.99881 410.472 10.4737 407.466 11.1011C410.262 7.14409 412.28 3.98646 413.053 2.75268Z" fill="#BF9743"/>
</g>
<defs>
<clipPath id="clip0_3_13">
<rect width="529" height="583" fill="white"/>
</clipPath>
</defs>
</svg>
