<svg id="Group_3924" data-name="Group 3924" xmlns="http://www.w3.org/2000/svg" width="108.869" height="32.226" viewBox="0 0 108.869 32.226">
  <g id="Group_3841" data-name="Group 3841" transform="translate(0 0.057)">
    <path id="Path_27669" data-name="Path 27669" d="M-299.982,334.637a5.7,5.7,0,0,0-2.626,1.1,7.7,7.7,0,0,0-1.884,2.566,5.092,5.092,0,0,0,4.511-3.666Zm-1.711,2.214a4.737,4.737,0,0,1-2.315,1.1,6.74,6.74,0,0,1,1.566-2,5.3,5.3,0,0,1,2.051-.961,4.837,4.837,0,0,1-1.285,1.849Z" transform="translate(322.323 -326.889)" fill="#307b32"/>
    <path id="Path_27670" data-name="Path 27670" d="M-345.369,335.737a5.687,5.687,0,0,0-2.626-1.1,5.09,5.09,0,0,0,4.51,3.666A7.688,7.688,0,0,0-345.369,335.737Zm-.917,1.115-.015-.015a4.838,4.838,0,0,1-1.285-1.852,5.317,5.317,0,0,1,2.051.962,6.751,6.751,0,0,1,1.566,2A4.737,4.737,0,0,1-346.286,336.852Z" transform="translate(349.383 -326.89)" fill="#307b32"/>
    <path id="Path_27671" data-name="Path 27671" d="M-342.26,326.188a2.285,2.285,0,0,1,1.522.916l.477-.345a2.328,2.328,0,0,1-.178-1.716.077.077,0,0,0-.01-.066c-.624-.916-4-4.509-4.346-4.509a.036.036,0,0,0-.018,0c-.229.151,1.863,4.687,2.495,5.681A.074.074,0,0,0-342.26,326.188Zm-1.715-4.542,2.562,3.621a.108.108,0,0,1-.019.151.107.107,0,0,1-.15-.019l-.006-.008s-2.424-3.716-2.426-3.719A.023.023,0,0,1-343.975,321.646Z" transform="translate(347.414 -318.076)" fill="#307b32"/>
    <path id="Path_27672" data-name="Path 27672" d="M-333.658,338.021l.5-.361-.062-.079-.488.353Z" transform="translate(340.494 -328.721)" fill="#307b32"/>
    <path id="Path_27673" data-name="Path 27673" d="M-330.689,326.253a.344.344,0,0,0,.368-.319c0-.007,0-.014,0-.022a.344.344,0,0,0-.374-.312.345.345,0,0,0-.211.1c.008-.181.091-.315.238-.315a.331.331,0,0,1,.215.087l.094-.135a.451.451,0,0,0-.3-.111c-.281,0-.426.237-.426.542a.493.493,0,0,0,.12.381A.373.373,0,0,0-330.689,326.253Zm-.008-.507a.18.18,0,0,1,.2.155.179.179,0,0,1-.155.2.163.163,0,0,1-.043,0,.185.185,0,0,1-.2-.163.124.124,0,0,1,0-.017.182.182,0,0,1,.189-.176h.012Z" transform="translate(338.866 -321.034)" fill="#307b32"/>
    <path id="Path_27674" data-name="Path 27674" d="M-328.225,326.253a.345.345,0,0,0,.368-.319c0-.007,0-.014,0-.021a.315.315,0,0,0-.315-.315l-.032,0a.32.32,0,0,0-.238.1c.009-.181.091-.315.239-.315a.331.331,0,0,1,.215.087l.094-.135a.453.453,0,0,0-.3-.111c-.281,0-.426.237-.426.542a.493.493,0,0,0,.121.381A.37.37,0,0,0-328.225,326.253Zm-.009-.507a.18.18,0,0,1,.2.154.18.18,0,0,1-.154.2.163.163,0,0,1-.043,0,.185.185,0,0,1-.2-.164.123.123,0,0,1,0-.017.183.183,0,0,1,.19-.176h.012Z" transform="translate(337.333 -321.034)" fill="#307b32"/>
    <path id="Path_27675" data-name="Path 27675" d="M-312.319,325.888a.293.293,0,0,0,.233-.1c-.006.183-.094.312-.24.312a.328.328,0,0,1-.227-.094l-.1.133a.472.472,0,0,0,.318.119c.265,0,.426-.221.426-.542a.5.5,0,0,0-.121-.381.359.359,0,0,0-.275-.1.346.346,0,0,0-.37.32c0,.008,0,.016,0,.024a.315.315,0,0,0,.311.319Zm.02-.511a.189.189,0,0,1,.206.17.1.1,0,0,1,0,.015.184.184,0,0,1-.187.181h-.015a.183.183,0,0,1-.2-.161.183.183,0,0,1,.161-.2.188.188,0,0,1,.037,0Z" transform="translate(327.409 -321.035)" fill="#307b32"/>
    <path id="Path_27676" data-name="Path 27676" d="M-309.566,326.088h-.473l.2-.17c.176-.143.258-.229.258-.386a.3.3,0,0,0-.292-.3l-.035,0a.408.408,0,0,0-.367.209l.124.1c.076-.1.139-.149.229-.149a.149.149,0,0,1,.161.136c0,.006,0,.012,0,.018,0,.089-.05.153-.186.269l-.342.291v.137h.718Z" transform="translate(325.926 -321.039)" fill="#307b32"/>
    <path id="Path_27677" data-name="Path 27677" d="M-327.985,326.668l-.962-.148-.506.286-.151.086-.147.083-.17-.027-.171-.026-.356-.056h0l-.34-.054h0l-.526-.084c-.4.549-1.616.745-3.156,1.262.011-.041.023-.083.034-.124h0c.012-.041.024-.083.038-.124.04-.142.086-.285.133-.429a13.106,13.106,0,0,1,.556-1.4,5.437,5.437,0,0,0,4.771-4.006l.109-.437-.449.038a5.958,5.958,0,0,0-2.905,1.189,7.953,7.953,0,0,0-1.948,2.615,4.546,4.546,0,0,1-1.177-.059l-.113-.025c-.038-.009-.076-.018-.11-.028l4.55-6.869h0l.45-.683.1-.144-.023-.083a.959.959,0,0,0-.925-.706,1.038,1.038,0,0,0-.133.009l-.084.012h0l-.265.4-.282.428h0l-4.573,6.954c-.027-.023-.054-.049-.08-.076s-.053-.052-.076-.078a2.225,2.225,0,0,1-.514-2.28,1.055,1.055,0,0,1,.631-.735.335.335,0,0,1,.261.025l.022.014a.655.655,0,0,1,.084.861.021.021,0,0,0-.006.025c.008.015.033.005.033.005a.889.889,0,0,0,.446-1.176.9.9,0,0,0-.105-.177h0a.954.954,0,0,0-.9-.2A1.659,1.659,0,0,0-338,321.872a2.877,2.877,0,0,0,.765,3.036l.08.076c.027.025.054.049.082.071l-1.911,2.9q.042,1.154.073,2.218c0,.025,0,.08,0,.1.009-.009.073-.1.073-.1l2.934-4.431.008,0,.016-.04h0l.032-.049-.033.1.081.026.108.032a4.58,4.58,0,0,0,1.25.14c-.161.37-.308.756-.439,1.15q-.151.454-.26.891c-.011.042-.021.084-.031.125s-.021.085-.03.127a12.176,12.176,0,0,0-2.169,1.09,9.57,9.57,0,0,0-1.3.979c-.031.028-.06.056-.09.084l-.078.076-.062.062v.041c0,.026,0,.053,0,.079q.01.369.019.725l.37-.209.094-.053.094-.053,2.92-1.652.3-.168.111-.063.3-.169,3.624-2.052h0l.334.058-4,2.264-.291.165-.109.062-.291.164h0l-2.776,1.57-.094.053-.094.053h0l-.483.273.007.247.6-.337.094-.053.094-.053,2.639-1.491.284-.16.108-.06.284-.161,4.38-2.475h0l.167.029.166.029-4.735,2.676-.279.158-.105.059-.277.156-2.513,1.421-.094.053-.094.053-.71.4q.012.523.022,1.015v.046l1.191-.7.186-.109,2.079-1.219c0,.026.009.052.013.078l.007.035c.005.026.009.052.016.076l.007.035a3.363,3.363,0,0,0,.244.737,2.183,2.183,0,0,0,1.281,1.179c-.022.086-.038.172-.053.259a3.131,3.131,0,0,0-.038.638,3.919,3.919,0,0,0-2.014.52l-.092.055c-.03.017-.061.038-.091.058-.489-.742-.97-1.474-1.425-2.163l-1.205.706,1.607,2.437c-.024.031-.046.062-.067.093s-.044.063-.066.095a5.51,5.51,0,0,0-.785,1.9,4.042,4.042,0,0,0-.743-.237c-.071-.015-.142-.028-.214-.038,0-1.154-.015-2.524-.043-4.069v-.273a.145.145,0,0,1,0-.019c0-.06,0-.121,0-.182s0-.133,0-.2q-.007-.312-.014-.635c0-.041,0-.081,0-.122l0-.122-.007-.247c0-.083,0-.162-.006-.243q-.007-.264-.014-.533c0-.062,0-.125-.005-.189v-.022c0-.051,0-.1-.005-.153a.044.044,0,0,0,0-.01c0-.047,0-.1,0-.143,0-.071,0-.143-.006-.215s0-.136-.007-.2,0-.136-.006-.2q-.023-.766-.052-1.566c0-.061,0-.122-.008-.184h0c0-.061,0-.124-.006-.186q-.025-.667-.053-1.356c-.189-4.577-.193-7.053-.133-7.423.378.39.7.731,1,1.016a1.517,1.517,0,0,0,.23.164c.034.019.076.033.1.012a.078.078,0,0,0,.023-.05h0a.347.347,0,0,0-.006-.088,20.641,20.641,0,0,0-.722-2.625c-.247-.714-.979-2.541-1.289-3.31a.182.182,0,0,0-.026-.043l-.017-.018a.16.16,0,0,0-.226.015.158.158,0,0,0-.026.041c-.254.581-.746,1.725-.855,2.125a.29.29,0,0,0,.023.214,2.058,2.058,0,0,1,.387,1.148q.01,3.989-.026,6.1.033,1.86.065,3.6c0,.064,0,.127,0,.189s0,.128,0,.191q.022,1.214.044,2.365v.069c0,.04,0,.081,0,.121v.04c0,.048,0,.1,0,.143v.057c0,.067,0,.135,0,.2,0,.205.008.408.012.61,0,.083,0,.166,0,.249h0c0,.085,0,.169.005.253,0,.042,0,.083,0,.124s0,.083,0,.125c.005.251.009.5.015.745,0,.063,0,.125,0,.189h0c0,.038,0,.072,0,.109v.173l0,.079v.047c.031,1.484.061,2.858.091,4.108-.071.009-.143.022-.214.038a4,4,0,0,0-.806.248,5.475,5.475,0,0,0-.829-1.965c-.022-.032-.043-.063-.066-.094l-.068-.091,1.6-2.414-1.152-.675-1.427,2.17c-.03-.02-.06-.04-.09-.058s-.061-.038-.092-.055a3.925,3.925,0,0,0-2.013-.52,3.158,3.158,0,0,0-.038-.638q-.021-.13-.053-.258a2.179,2.179,0,0,0,1.28-1.179,3.364,3.364,0,0,0,.245-.744c0-.011.005-.023.008-.035s.01-.051.016-.076,0-.023.006-.035.009-.052.013-.078l2.079,1.219.093.054.093.055,1.1.647v-.047q-.011-.513-.022-1.037l-.579-.328-.094-.053-.094-.053-2.515-1.421-.276-.156-.1-.06-.28-.158-4.717-2.666.166-.029.167-.029,4.362,2.466.286.161.107.061.283.159,2.64,1.492.094.053.094.053.456.259c0-.084,0-.169,0-.254l-.331-.189-.094-.053-.094-.053-2.776-1.571-.29-.164h0l-.109-.061-.292-.165-3.981-2.254.333-.057,3.606,2.041.3.17.111.063.3.168h0l2.919,1.652.094.053.094.053.207.117c0-.139-.005-.28-.008-.421,0-.064,0-.126,0-.189s0-.127,0-.189a.073.073,0,0,0,0-.022c0-.044,0-.088,0-.133-.065-.06-.133-.119-.2-.181a10.435,10.435,0,0,0-1.11-.809,12.231,12.231,0,0,0-2.181-1.1c-.009-.042-.019-.085-.03-.127l-.03-.124a13.228,13.228,0,0,0-.7-2.037,4.372,4.372,0,0,0,1.392-.185l.041-.014.016-.006.044-.019h0l.1-.042c.7,1.233,1.489,2.6,1.918,3.252l.7,1.061c.013.019.024.038.038.056v-.025c-.016-.838-.032-1.688-.047-2.546-.469-.649-1.119-1.509-1.732-2.308.029-.022.057-.043.085-.066s.056-.046.084-.07a2.89,2.89,0,0,0,.921-3.177,1.663,1.663,0,0,0-1.079-1.152.955.955,0,0,0-.9.2.89.89,0,0,0,.164,1.248.863.863,0,0,0,.176.105s.025.009.032-.005a.021.021,0,0,0-.005-.025.652.652,0,0,1,.084-.861l.018-.012a.335.335,0,0,1,.265-.026,1.056,1.056,0,0,1,.631.735,2.245,2.245,0,0,1-.7,2.461c-.026.024-.054.047-.083.07l-.085.066c-.456-.591-.861-1.111-1.111-1.429l-.529.381c.192.345.491.886.839,1.5l-.052.022-.049.016c-.035.011-.071.022-.107.031a4.207,4.207,0,0,1-1.373.107,7.957,7.957,0,0,0-1.953-2.615,5.962,5.962,0,0,0-2.906-1.189l-.449-.038.108.437a5.437,5.437,0,0,0,4.771,4.006,13.023,13.023,0,0,1,.556,1.4q.07.214.132.424c.013.041.024.083.038.123h0c.012.042.023.083.034.124-1.533-.514-2.743-.709-3.141-1.257l-.525.083-.34.055h0l-.355.056-.171.027-.169.026-.149-.084-.151-.086-.506-.286-.963.148a.076.076,0,0,0-.057.09.075.075,0,0,0,.032.046l.45.265.093.054,6.265,3.673c0,.027-.006.054-.009.082a.269.269,0,0,1,0,.035l-.011.081a.173.173,0,0,1-.005.034,2.955,2.955,0,0,1-.236.815,1.536,1.536,0,0,1-.912.848,5.01,5.01,0,0,0-1.921-2.075l-.142.227a4.776,4.776,0,0,1,1.8,1.914c-.038.007-.073.012-.111.016a4.689,4.689,0,0,0-1.745-1.839l.015-.025-.015.024a5.321,5.321,0,0,0-2.767-.663A5.322,5.322,0,0,0-349,332.4a4.668,4.668,0,0,0,1.483.556h0a4.039,4.039,0,0,0,.725.1h.05c.067,0,.132,0,.2,0a2.13,2.13,0,0,0,.277-.027c.038,0,.071-.011.105-.018h0a1.8,1.8,0,0,0,1.312-1.051,3.142,3.142,0,0,0,.242-.784c0-.011,0-.023.006-.034.005-.026.009-.053.013-.08s0-.023.005-.035.008-.053.01-.08l.1.057c0,.027-.007.054-.011.081a.272.272,0,0,1-.005.035l-.013.079c0,.011,0,.023-.006.034a3.165,3.165,0,0,1-.243.773,1.906,1.906,0,0,1-1.115,1.032,2.121,2.121,0,0,1-.258.072l-.029.006-.076.014a2.67,2.67,0,0,1-.274.031c-.059,0-.119.005-.18.005h-.1a4.133,4.133,0,0,1-.756-.1h0a4.765,4.765,0,0,1-1.515-.567,5.448,5.448,0,0,1-1.965-2.25l-.03-.069.076-.007a5.47,5.47,0,0,1,2.91.675l.139-.23a5.649,5.649,0,0,0-3.071-.711l-.445.038.176.41a5.64,5.64,0,0,0,2.073,2.374,5.012,5.012,0,0,0,1.6.6h0l.038.008h.005a4.457,4.457,0,0,0,.735.1h0c.157.011.294.015.4.015h0q.027.107.044.212a2.478,2.478,0,0,1,.023.584,5.809,5.809,0,0,0-.967.224l-.013,0a5.11,5.11,0,0,0-1.629.821,5.639,5.639,0,0,0-1.782,2.6l-.127.428.446-.015a5.641,5.641,0,0,0,2.967-1.065,4.7,4.7,0,0,0,.782-.769c.02-.025.04-.049.06-.076l.085-.111a4.589,4.589,0,0,0,.459-.725l0,0a3.6,3.6,0,0,0,.271-.718h.056a3.244,3.244,0,0,1,1.7.416c.032.018.062.036.093.055s.061.038.09.058l-5.43,8.256a.059.059,0,0,0,.018.082.057.057,0,0,0,.031.009l.015,0,.471-.118a.054.054,0,0,0,.035-.025,4.65,4.65,0,0,1,2.186-1.981.6.6,0,0,0,.294-.232l3.335-5.035c.022.032.043.064.064.1s.043.066.063.1a5.018,5.018,0,0,1,.624,1.694,4.875,4.875,0,0,0-1.467,1.5l-.009.013a4.623,4.623,0,0,0-.446.826v0l0,.01a5.639,5.639,0,0,0-.24,3.143l.1.434.378-.236a5.639,5.639,0,0,0,2.034-2.408,4.5,4.5,0,0,0,.186-.557,4.862,4.862,0,0,0,.123-.621c0-.012,0-.024.005-.038a6.758,6.758,0,0,0,.033-1.723,3.469,3.469,0,0,1,.718-.249c.073-.016.145-.03.214-.041.032,1.273.063,2.406.094,3.385a21.532,21.532,0,0,1-.189,3.335c-.133.7-.353,1.307-.207,1.323a.117.117,0,0,0,.071-.04.582.582,0,0,0,.043-.048h0c.01-.013.022-.026.033-.042a3.075,3.075,0,0,0,.22-.358c.022-.04.045-.084.069-.129.016-.03.032-.061.047-.093l.048-.1.025-.05.049-.1.009-.02.036-.079c.007-.016.016-.034.023-.053l.013-.029.017-.04.038-.088.02-.049.051-.127c.018-.045.038-.093.055-.143q.01-.025.019-.051c.02-.053.04-.106.06-.163.007-.019.014-.038.02-.058.014-.038.028-.079.042-.12.021-.061.043-.124.064-.189.065-.2.132-.416.2-.649.029-.1.057-.212.086-.322a13.569,13.569,0,0,0,.362-2.071q.087-.938.1-1.944,0-.4,0-.865.105.019.214.047a3.445,3.445,0,0,1,.638.23,6.77,6.77,0,0,0,.029,1.7c0,.022.005.043.009.064a4.717,4.717,0,0,0,.308,1.178,5.638,5.638,0,0,0,2.034,2.408l.378.236.1-.434a5.646,5.646,0,0,0-.24-3.143l0-.01v0a4.719,4.719,0,0,0-.445-.824v0a4.894,4.894,0,0,0-1.476-1.508,5.012,5.012,0,0,1,.583-1.625c.02-.035.04-.069.061-.1s.042-.066.063-.1l4.241,6.433h0l.148.224.281.428.265.4.085.012a.917.917,0,0,0,.133.009.959.959,0,0,0,.925-.706l.022-.083h0l-.1-.144-.331-.5h0l-4.676-7.092.09-.058c.03-.02.061-.038.092-.055a3.254,3.254,0,0,1,1.7-.416,5.777,5.777,0,0,0,.334.734l.011.019a4.685,4.685,0,0,0,.529.808l0,.006.055.068a4.731,4.731,0,0,0,.782.769,5.641,5.641,0,0,0,2.967,1.065l.446.015-.127-.428a5.643,5.643,0,0,0-1.782-2.6,5.07,5.07,0,0,0-1.568-.8l-.053-.017a5.793,5.793,0,0,0-.988-.23,2.44,2.44,0,0,1,.023-.584,2.144,2.144,0,0,1,.044-.212h0c.11,0,.247,0,.4-.015h0a4.211,4.211,0,0,0,.694-.088l.033-.007.051-.01a5,5,0,0,0,1.6-.6,5.639,5.639,0,0,0,2.073-2.374l.177-.41-.445-.038a5.648,5.648,0,0,0-3.071.711A5.043,5.043,0,0,0-333.6,332.7a1.535,1.535,0,0,1-.911-.848,2.959,2.959,0,0,1-.235-.807c0-.011,0-.022,0-.034s-.008-.054-.011-.081c0-.012,0-.023,0-.035l-.009-.082,6.277-3.681.093-.054.45-.265a.075.075,0,0,0,.029-.1A.075.075,0,0,0-327.985,326.668Zm-8.94-1.841c-.027-.024-.055-.048-.081-.072h0c-.027-.024-.053-.05-.079-.076a2.783,2.783,0,0,1-.567-.806,2.587,2.587,0,0,1-.095-1.914,1.418,1.418,0,0,1,.892-.979.689.689,0,0,1,.632.126l.014.011,0,0a.7.7,0,0,1,.077.836c-.009.015-.022,0-.018-.009a.707.707,0,0,0-.132-.748l0,0-.021-.017a.587.587,0,0,0-.526-.1,1.313,1.313,0,0,0-.818.909,2.423,2.423,0,0,0,.627,2.582c.026.026.052.053.078.076s.053.05.081.076Zm2.216,3.017c-.012.042-.023.083-.033.124l-.033.126-.113.041c.01-.042.021-.084.033-.126h0c.009-.041.02-.082.033-.123a13.267,13.267,0,0,1,.814-2.21,4.862,4.862,0,0,1-1.522-.092c-.038-.009-.076-.019-.11-.029s-.072-.022-.107-.033l.062-.093c.035.011.07.022.107.032l.111.028a4.824,4.824,0,0,0,1.512.076,7.85,7.85,0,0,1,1.938-2.663,5.78,5.78,0,0,1,2.762-1.131l.076-.007-.019.073a5.2,5.2,0,0,1-4.691,3.827,13.132,13.132,0,0,0-.818,2.181Zm-8.137-3.032c.028-.022.055-.045.082-.07a2.464,2.464,0,0,0,.8-2.748,1.314,1.314,0,0,0-.818-.909.588.588,0,0,0-.527.1l-.02.017,0,0a.707.707,0,0,0-.132.748c0,.013-.009.025-.018.009a.7.7,0,0,1,.076-.837s0,0,0,0l.014-.011a.692.692,0,0,1,.632-.126,1.418,1.418,0,0,1,.892.978,2.593,2.593,0,0,1-.095,1.914,2.827,2.827,0,0,1-.737.963c-.027.023-.055.047-.084.07l-.084.066c-.024-.031-.049-.062-.072-.093a.963.963,0,0,0,.085-.066Zm-2.869.852a5.2,5.2,0,0,1-4.691-3.827l-.018-.073.076.007a5.783,5.783,0,0,1,2.763,1.131,7.846,7.846,0,0,1,1.937,2.663,4.582,4.582,0,0,0,1.691-.124l.1-.034h0l.1-.041.053.094-.1.042-.011,0h0c-.028.009-.06.021-.088.029a4.617,4.617,0,0,1-1.693.138,13.281,13.281,0,0,1,.814,2.206c.011.041.022.083.033.124s.022.084.032.126l-.113-.041c-.009-.042-.021-.084-.032-.126s-.022-.083-.034-.124a13.065,13.065,0,0,0-.821-2.174Zm-1.014,7.127h-.027a5.489,5.489,0,0,1-.623-.076l-.022,0-.063-.013h0a4.408,4.408,0,0,1-1.4-.525,4.834,4.834,0,0,1-1.57-1.625,4.858,4.858,0,0,1,2.168.617l.006,0a4.5,4.5,0,0,1,1.59,1.625c-.019,0-.039,0-.057,0Zm.6.6.083-.017q.028.113.046.227a2.84,2.84,0,0,1,.032.6l-.108.008a2.717,2.717,0,0,0-.029-.6c-.009-.059-.021-.119-.036-.178,0-.015-.007-.031-.011-.047h.023Zm3.517,2.883c-.02-.033-.043-.066-.064-.1s-.043-.064-.066-.094a3.893,3.893,0,0,0-.57-.634,3.642,3.642,0,0,0-.4-.3l-.09-.058c-.03-.02-.061-.038-.093-.055a3.493,3.493,0,0,0-1.758-.463h-.088c-.064,0-.129,0-.194.008a.757.757,0,0,0-.082.006c-.038,0-.076.006-.112.01-.092.009-.189.022-.284.038a5.647,5.647,0,0,0-.9.233c-.029.009-.057.019-.086.029l-.113.038h0a4.55,4.55,0,0,0-1.215.658,5.32,5.32,0,0,0-1.625,2.335,5.317,5.317,0,0,0,2.671-.983,4.294,4.294,0,0,0,.72-.712h0a4.394,4.394,0,0,0,.563-.853c.006-.01.011-.021.016-.032a3.4,3.4,0,0,0,.189-.476l.04-.005.076-.009a3.379,3.379,0,0,1-.2.523.161.161,0,0,0-.008.017,4.489,4.489,0,0,1-.592.9h0a4.422,4.422,0,0,1-.737.728,5.459,5.459,0,0,1-2.812,1.009l-.076,0,.021-.071a5.456,5.456,0,0,1,1.687-2.457,4.644,4.644,0,0,1,1.243-.672h0l.04-.015.066-.024.016-.006a5.682,5.682,0,0,1,1.042-.267c.094-.015.189-.026.28-.035l.111-.009c.092-.006.184-.01.274-.01h.1a3.65,3.65,0,0,1,1.787.474l.092.055c.03.017.06.038.09.057a3.651,3.651,0,0,1,.408.314,4.006,4.006,0,0,1,.562.619c.023.031.045.062.066.094s.044.064.065.1a5.272,5.272,0,0,1,.739,1.83l-.1.06a5.2,5.2,0,0,0-.706-1.795Zm-3.889-1.336a3.116,3.116,0,0,1-.129.3l0,0a4.655,4.655,0,0,1-1.215,1.485,4.832,4.832,0,0,1-2.086.869,4.841,4.841,0,0,1,1.37-1.8,4.277,4.277,0,0,1,1.146-.619v0c.059-.022.118-.043.176-.064l.016-.005a5.525,5.525,0,0,1,.723-.18Zm5.758,3.1a3.584,3.584,0,0,0-.745.247c-.026.012-.053.024-.079.038-.058.027-.116.057-.173.089-.024.013-.049.026-.073.041l-.027.016c-.085.05-.168.1-.249.161a4.593,4.593,0,0,0-1.228,1.311,4.281,4.281,0,0,0-.411.762.007.007,0,0,1,0,.005,4.811,4.811,0,0,0-.33,1.808,5.56,5.56,0,0,0,.092,1.027,5.32,5.32,0,0,0,1.821-2.188,4.071,4.071,0,0,0,.168-.5,4.631,4.631,0,0,0,.1-.491c0-.021.007-.041.009-.063a6.471,6.471,0,0,0,.059-1.539l.043-.027.059-.035a6.562,6.562,0,0,1-.054,1.617c0,.022-.006.043-.01.066q-.04.24-.1.48l0,.019a4.228,4.228,0,0,1-.173.52,5.459,5.459,0,0,1-1.928,2.281l-.064.04-.018-.072a5.457,5.457,0,0,1,.227-2.979h0l.1.043-.1-.044s0-.005,0-.008a6.361,6.361,0,0,1,.373-.7l.027-.043a4.687,4.687,0,0,1,1.319-1.4l0,.015c.122-.091.2-.139.2-.141l.045-.028.01-.007.008,0,.082-.046c.054-.029.108-.057.164-.083l.087-.041a3.7,3.7,0,0,1,.76-.246c.071-.016.142-.028.214-.038,0,.038,0,.071,0,.108a1.677,1.677,0,0,0-.212.035Zm-1.39,2.216c0,.021-.006.04-.009.06-.026.157-.059.315-.1.472a3.876,3.876,0,0,1-.156.466,4.842,4.842,0,0,1-1.37,1.8c-.015-.153-.026-.336-.026-.537a4.547,4.547,0,0,1,.306-1.694l0-.01a6.187,6.187,0,0,1,.343-.652l0,0a5.247,5.247,0,0,1,1.025-1.142,5.434,5.434,0,0,1-.022,1.242Zm5.945-.359.011.017a6.265,6.265,0,0,1,.4.745s0,0,0,.007h0a5.461,5.461,0,0,1,.227,2.979l-.017.072-.064-.04a5.45,5.45,0,0,1-1.928-2.281,4.019,4.019,0,0,1-.173-.52h0l0-.019q-.057-.227-.1-.458a.115.115,0,0,0,0-.022,6.614,6.614,0,0,1-.065-1.683c.02.012.04.024.06.038l.042.026a6.489,6.489,0,0,0,.072,1.621h0c.019.122.043.246.076.372.006.024.011.046.017.07l.007.028h0a4.066,4.066,0,0,0,.168.5,5.317,5.317,0,0,0,1.82,2.188,5.307,5.307,0,0,0-.238-2.835h0l0-.005a4.261,4.261,0,0,0-.407-.756l0-.006c-.026-.041-.054-.083-.082-.123-.009-.016-.02-.03-.031-.045s-.038-.054-.057-.081-.058-.08-.088-.12c-.013-.018-.026-.036-.04-.053q-.123-.156-.256-.3c-.024-.026-.048-.052-.073-.076h0l0,0-.006-.005c-.015-.018-.033-.035-.051-.052s-.038-.038-.056-.054-.049-.047-.076-.07-.061-.055-.093-.082l-.049-.042c-.059-.05-.119-.1-.181-.142-.028-.021-.056-.042-.085-.061-.082-.057-.166-.111-.25-.162l-.026-.016c-.024-.015-.049-.029-.076-.042-.057-.032-.113-.061-.172-.088l-.079-.038a3.579,3.579,0,0,0-.672-.232c-.071-.017-.142-.032-.214-.044V337.9c.071.012.143.026.214.043a3.716,3.716,0,0,1,.691.231l.087.04h0c.055.026.109.053.163.082l.1.056v0l.046.028s.079.05.2.141l0-.016a4.693,4.693,0,0,1,1.315,1.386Zm-1.273.418c0-.019-.007-.038-.009-.058a5.419,5.419,0,0,1-.022-1.245,5.213,5.213,0,0,1,1.025,1.143l0,.008a6.261,6.261,0,0,1,.34.649s0,.007,0,.01a4.86,4.86,0,0,1,.28,2.23,4.839,4.839,0,0,1-1.368-1.8,3.744,3.744,0,0,1-.156-.466h0q-.059-.235-.1-.473Zm4.243-5.787a5.638,5.638,0,0,1,1.043.267l.026.009.1.035h0a4.668,4.668,0,0,1,1.243.672,5.456,5.456,0,0,1,1.689,2.464l.021.071-.076,0a5.457,5.457,0,0,1-2.812-1.01,4.383,4.383,0,0,1-.737-.729,5.561,5.561,0,0,1-.593-.9c0-.005-.005-.009-.007-.015h0a5.794,5.794,0,0,1-.245-.526c.015,0,.029,0,.045,0l.076.009c.055.133.13.3.227.481a.027.027,0,0,1,0,.008,5.577,5.577,0,0,0,.576.877,4.341,4.341,0,0,0,.721.712,5.315,5.315,0,0,0,2.671.983,5.324,5.324,0,0,0-1.625-2.335,4.558,4.558,0,0,0-1.216-.658c-.043-.016-.087-.032-.13-.046l-.033-.011-.059-.021-.053-.018q-.273-.09-.525-.147l-.092-.021q-.107-.023-.211-.04c-.1-.017-.192-.03-.284-.038-.038,0-.076-.008-.112-.01s-.054,0-.082-.006c-.066,0-.131-.007-.194-.008h-.088a3.484,3.484,0,0,0-1.759.464c-.032.018-.062.038-.092.055s-.06.038-.09.058a3.59,3.59,0,0,0-.4.3,3.9,3.9,0,0,0-.615.7c-.022.032-.043.064-.065.1s-.043.066-.063.1a5.188,5.188,0,0,0-.664,1.727l-.1-.06a5.314,5.314,0,0,1,.7-1.765c.021-.033.043-.066.064-.1s.043-.064.066-.1a3.994,3.994,0,0,1,.607-.68,3.575,3.575,0,0,1,.408-.314c.029-.02.06-.038.09-.057s.062-.038.093-.055a3.649,3.649,0,0,1,1.787-.474h.1c.09,0,.181,0,.274.01l.111.009a2.63,2.63,0,0,1,.279.028Zm.113.413a5.457,5.457,0,0,1,.68.166l.017.005c.073.024.147.051.221.079v0a4.3,4.3,0,0,1,1.145.62,4.835,4.835,0,0,1,1.37,1.8,4.837,4.837,0,0,1-2.086-.869,4.077,4.077,0,0,1-.678-.67l-.014-.017h0l-.006-.008,0,0s0,0,0,0a5.234,5.234,0,0,1-.51-.782s0-.007-.005-.01l0-.006a3.1,3.1,0,0,1-.127-.3Zm-.359-1.5c-.014.059-.025.119-.035.178a2.671,2.671,0,0,0-.029.6l-.109-.008a2.793,2.793,0,0,1,.032-.6q.019-.113.046-.227h0l.082.017,0,.049Zm-1.293-1.48a1.8,1.8,0,0,0,1.312,1.051h0c.035.008.069.014.105.019h0a2.259,2.259,0,0,0,.277.026s0,.007,0,.01c.06,0,.125,0,.2-.008h.005a4.106,4.106,0,0,0,.779-.1h0a4.664,4.664,0,0,0,1.484-.554,5.322,5.322,0,0,0,1.89-2.13,5.327,5.327,0,0,0-2.767.663h0a4.687,4.687,0,0,0-1.745,1.839c-.038,0-.076-.009-.11-.016a4.77,4.77,0,0,1,1.8-1.917,5.472,5.472,0,0,1,2.91-.674l.076.007-.03.069a5.453,5.453,0,0,1-1.965,2.25,4.791,4.791,0,0,1-1.515.567h0a5.873,5.873,0,0,1-.756.1h-.1c-.061,0-.122,0-.181-.005a2.565,2.565,0,0,1-.274-.031l-.076-.014h0a.122.122,0,0,1-.028-.005,2.026,2.026,0,0,1-.259-.073A1.9,1.9,0,0,1-334.852,332a3.174,3.174,0,0,1-.241-.765c0-.011,0-.023-.006-.034-.005-.026-.01-.053-.014-.08a.177.177,0,0,0-.005-.034c0-.026-.008-.053-.011-.081l.1-.057c0,.027.007.053.011.08h0a.245.245,0,0,0,0,.034h0c0,.026.009.053.014.079a.2.2,0,0,0,.006.034,3.063,3.063,0,0,0,.238.78Zm1.822.834a4.483,4.483,0,0,1,1.591-1.625,4.848,4.848,0,0,1,2.174-.621,4.35,4.35,0,0,1-3.719,2.245h-.045Z" transform="translate(351.667 -314.138)" fill="#307b32"/>
  </g>
  <g id="Group_3843" data-name="Group 3843" transform="translate(28.691)">
    <path id="Path_27678" data-name="Path 27678" d="M-89.1,327.594v-5.486c0-2.605-1.4-4.359-3.958-4.359a4.436,4.436,0,0,0-4.359,3.607v-7.37h-5.11v.05c1.177.551,1.5,1.127,1.5,2.705v13.583h4.885v-.05c-1.152-.626-1.277-1.027-1.277-2.68V323.41c0-2.48,1.1-3.858,2.656-3.858,1.478,0,2.054,1.152,2.054,2.555v5.486c0,1.653-.125,2.054-1.277,2.68v.05h6.163v-.05C-88.975,329.648-89.1,329.247-89.1,327.594Z" transform="translate(168 -313.986)" fill="#003d55"/>
    <path id="Path_27679" data-name="Path 27679" d="M-239.962,333.468c0-1.669.05-3.239.05-5.033,0-3.065-2.043-4.309-5.805-4.309a7.311,7.311,0,0,0-2.689.469,3.273,3.273,0,0,1,.537.9,3.026,3.026,0,0,1,2.079-.892c1.669,0,2.292,1.346,2.292,2.84v2.043l-1.894.348c-2.99.548-5.78,1.122-5.78,3.862,0,2.117,1.669,3.114,3.637,3.114a4,4,0,0,0,4.061-3.015c0,.174.05.747.05.847.2,1.345,1.1,2.217,2.865,2.217a3.658,3.658,0,0,0,2.716-1.121v-.05a1.349,1.349,0,0,1-.623.151C-239.638,335.835-239.962,335.013-239.962,333.468Zm-3.588-1.121c-.025,1.769-1.021,2.99-2.343,2.99-1.046,0-1.694-.723-1.694-2.143,0-1.669.847-2.591,2.79-2.99l1.3-.274Z" transform="translate(260.463 -320.294)" fill="#003d55"/>
    <path id="Path_27680" data-name="Path 27680" d="M-202.3,324.833v-.05h-3.637v.05a1.654,1.654,0,0,1,1.172,1.619,2.972,2.972,0,0,1-.225,1.1l-2.068,5.058-1.968-5.182a5.891,5.891,0,0,1-.373-1.445,1.186,1.186,0,0,1,.747-1.146v-.05h-5.681v.05a5.631,5.631,0,0,1,1.819,2.641l.373.872-1.968,4.36-2.343-5.306a4.279,4.279,0,0,1-.374-1.445,1.128,1.128,0,0,1,.623-1.121v-.05h-5.678v.05a5.591,5.591,0,0,1,1.819,2.641l4.435,9.817h.05l3.737-8.2,3.413,8.2h.05l4.161-9.767A5.444,5.444,0,0,1-202.3,324.833Z" transform="translate(242.242 -320.702)" fill="#003d55"/>
    <path id="Path_27681" data-name="Path 27681" d="M-159.859,327.609V313.986h-5.083v.049c1.172.549,1.5,1.122,1.5,2.691v4.205a4.143,4.143,0,0,0-4.111-3.114c-3.064,0-5.556,2.566-5.556,6.5,0,3.862,2.419,6.254,5.382,6.254a4.4,4.4,0,0,0,4.285-3.439v3.189h4.932v-.049C-159.635,329.652-159.859,329.129-159.859,327.609Zm-3.588-2.242c0,2.268-1.42,3.713-2.89,3.713-1.869,0-2.941-1.744-2.941-4.759,0-3.388,1.021-5.332,2.915-5.332,1.47,0,2.915,1.52,2.915,3.936Z" transform="translate(211.908 -313.986)" fill="#003d55"/>
    <path id="Path_27682" data-name="Path 27682" d="M-264.244,326.49a2.352,2.352,0,0,0-2.541-2.367c-2.217,0-3.389,2.043-3.986,4.336v-4.086h-4.983v.05c1.172.623,1.4,1.121,1.4,2.716v6.777c0,1.645-.125,2.043-1.247,2.666v.05h6.852v-.05c-1.37-.524-2.018-1.02-2.018-2.666v-3.463c0-2.491,1.27-4.235,2.691-4.235.945,0,1.47.5,1.47,1.321a1.2,1.2,0,0,1-.773,1.172,1.288,1.288,0,0,0,.872.274A2.305,2.305,0,0,0-264.244,326.49Z" transform="translate(275.755 -320.292)" fill="#003d55"/>
    <path id="Path_27683" data-name="Path 27683" d="M-155.407,360.458a1.062,1.062,0,0,0-1.062,1.062,1.062,1.062,0,0,0,1.062,1.062,1.062,1.062,0,0,0,1.062-1.062,1.062,1.062,0,0,0-1.062-1.062Z" transform="translate(201.554 -342.894)" fill="#003d55"/>
    <path id="Path_27684" data-name="Path 27684" d="M-122.813,333.47c0-1.669.05-3.239.05-5.033,0-3.065-2.043-4.309-5.805-4.309-2.891,0-4.884,1.345-4.884,3.139a2,2,0,0,0,2.167,1.993,2.151,2.151,0,0,0,2.168-1.346,1.245,1.245,0,0,1-.423.076c-.723,0-1.172-.523-1.172-1.445a1.854,1.854,0,0,1,2.068-1.943c1.669,0,2.292,1.346,2.292,2.84v2.044l-1.894.348c-2.99.548-5.78,1.121-5.78,3.862,0,2.117,1.669,3.114,3.637,3.114a4,4,0,0,0,4.062-3.015c0,.174.05.747.05.847.2,1.345,1.1,2.217,2.865,2.217a3.657,3.657,0,0,0,2.716-1.121v-.05a1.346,1.346,0,0,1-.623.151C-122.49,335.836-122.813,335.014-122.813,333.47Zm-3.588-1.121c-.025,1.769-1.021,2.989-2.343,2.989-1.046,0-1.694-.722-1.694-2.142,0-1.669.847-2.591,2.79-2.99l1.3-.274Z" transform="translate(187.593 -320.295)" fill="#003d55"/>
  </g>
  <g id="Group_3923" data-name="Group 3923" transform="translate(28.827 22.454)">
    <path id="Path_28027" data-name="Path 28027" d="M-269.939,378.707a2.7,2.7,0,0,1-2.266,1.124,3.117,3.117,0,0,1-3.192-3.218,3.117,3.117,0,0,1,3.192-3.218,2.664,2.664,0,0,1,2.119.969l-.545.407a2.022,2.022,0,0,0-1.574-.8,2.5,2.5,0,0,0-2.517,2.647,2.5,2.5,0,0,0,2.517,2.647,1.962,1.962,0,0,0,1.756-.917Z" transform="translate(275.397 -373.396)" fill="#003d55"/>
    <path id="Path_28028" data-name="Path 28028" d="M-257.563,379.361h2.854v.571h-3.477v-6.124h.623Z" transform="translate(264.691 -373.652)" fill="#003d55"/>
    <path id="Path_28029" data-name="Path 28029" d="M-244.65,379.831a3.116,3.116,0,0,1-3.191-3.218,3.116,3.116,0,0,1,3.191-3.218,3.116,3.116,0,0,1,3.192,3.218A3.116,3.116,0,0,1-244.65,379.831Zm0-5.864a2.5,2.5,0,0,0-2.517,2.647,2.5,2.5,0,0,0,2.517,2.647,2.5,2.5,0,0,0,2.517-2.647A2.5,2.5,0,0,0-244.65,373.967Z" transform="translate(258.256 -373.396)" fill="#003d55"/>
    <path id="Path_28030" data-name="Path 28030" d="M-223.449,377.648a2.16,2.16,0,0,1-2.241,2.439,2.16,2.16,0,0,1-2.24-2.439v-3.84h.623v3.771c0,1.764,1.15,1.937,1.617,1.937s1.618-.173,1.618-1.937v-3.771h.623Z" transform="translate(245.87 -373.652)" fill="#003d55"/>
    <path id="Path_28031" data-name="Path 28031" d="M-212.184,373.808h2.033a3.065,3.065,0,0,1,3.218,3.062,3.066,3.066,0,0,1-3.218,3.062h-2.033Zm.622,5.553h1.211a2.483,2.483,0,0,0,2.742-2.491,2.482,2.482,0,0,0-2.742-2.491h-1.211Z" transform="translate(236.076 -373.652)" fill="#003d55"/>
  </g>
</svg>
