<svg width="1900" height="1381" viewBox="0 0 1900 1381" fill="none" xmlns="http://www.w3.org/2000/svg">
<rect width="1900" height="1381" fill="#BF9743"/>
<g clip-path="url(#clip0_12_27)">
<mask id="mask0_12_27" style="mask-type:luminance" maskUnits="userSpaceOnUse" x="1028" y="0" width="872" height="721">
<path d="M1900 0H1028V721H1900V0Z" fill="white"/>
</mask>
<g mask="url(#mask0_12_27)">
<g opacity="0.997">
<path d="M1671.03 326.672C1725.69 298.502 1895.92 236.689 1945.83 219.584C1953.25 216.107 1962.55 171.884 1955.04 174.693C1908.61 190.779 1747.46 246.193 1687.17 278.969C1680.8 282.996 1665.3 330.701 1671.03 326.672Z" fill="#003D55"/>
<path d="M1890.01 324.722C1786.04 324.722 1541.83 549.703 1494.5 552.775C1445.68 555.944 1448.08 486.02 1501.21 407.6C1501.21 408.035 1505.79 385.337 1494.64 395.749C1414.86 501.997 1407.47 632.915 1476.73 632.915C1483.75 632.915 1491.85 630.925 1500.83 627.455L1557.21 596.055C1643.27 539.249 1764.27 436.775 1865.35 436.775C1887.16 436.775 1917.66 447.64 1939.33 469.369C1941.64 471.687 1945 470.669 1945.44 467.419C1950.34 431.767 1957.48 381.833 1957.82 363.519C1940.78 338.139 1917.93 324.722 1890.01 324.722Z" fill="#003D55"/>
<path d="M1520.89 15.9521C1461.27 15.9521 1429.02 86.9902 1429.02 142.584C1429.02 232.735 1499.63 222.061 1590.84 216.784C1585.69 192.848 1568.8 145.412 1548.73 135.692C1505.12 138.992 1475.05 133.092 1475.05 119.801C1475.05 105.254 1487.44 95.7392 1501.48 96.2462C1541.16 97.6822 1598.53 170.84 1597.12 231.065C1534.62 302.502 1435.11 349.971 1224.72 395.9C1220.44 396.835 1219.56 407.822 1223.69 408.714C1503.89 469.565 1643.4 364.636 1637.6 187.452C1635.15 112.548 1589.52 15.9521 1520.89 15.9521Z" fill="#003D55"/>
<path d="M1304.1 291.656C1326.66 291.221 1345.75 260.581 1353.72 224.223C1359.23 199.27 1352.47 187.316 1342.19 208.051C1338.09 216.281 1333.04 227.024 1329.43 229.334C1320.48 235.024 1287.93 219.805 1290.13 177.208C1291.75 145.297 1315.48 92.3333 1324.9 69.6363C1343.18 25.7703 1341.33 5.49726 1331.2 21.2633C1320 38.7073 1269.72 131.697 1260.01 188.529C1246.69 266.588 1286.11 292.001 1304.1 291.656Z" fill="#003D55"/>
<path d="M1407.5 472.666C1407.5 472.666 1372.33 478.049 1328.5 468.266C1298.98 461.678 1267.51 443.53 1267.51 443.53C1267.51 443.53 1275.21 530.357 1350.98 519.299C1350.98 519.299 1341.98 595.238 1391.38 595.039C1391.38 595.039 1386.04 564.232 1389.62 537.002C1392.51 514.82 1398.53 493.16 1407.5 472.666Z" fill="#003D55"/>
<path d="M1706.29 487.842C1706.29 487.842 1854.13 521.785 1802.17 621.657C1770.49 682.549 1699.92 647.28 1654.93 651.771C1609.93 656.262 1582.16 690.648 1582.16 690.648C1582.16 690.648 1590.7 628.948 1642.64 610.004C1683.59 595.072 1707.09 609.942 1707.09 609.942C1707.09 609.942 1699.72 586.715 1715.48 570.742C1726.46 559.603 1748.53 563.086 1748.53 563.086C1748.53 563.086 1728.6 589.372 1749.39 596.345C1770.17 603.318 1797.02 570.879 1777.95 548.188C1738.45 501.211 1687.8 507.34 1687.8 507.34L1706.29 487.842Z" fill="#003D55"/>
<path d="M1755.27 186.57C1755.27 195.651 1771.95 185.77 1780.63 174.57C1789.32 163.37 1804.94 128.94 1831.79 124.202C1858.64 119.464 1918.66 117.884 1918.66 117.884C1918.66 117.884 1923.39 87.0842 1931.29 65.7672C1939.19 44.4502 1947.88 27.0692 1947.88 27.0692C1947.88 27.0692 1882.86 18.2512 1842.06 59.4452C1808.6 93.2252 1807.29 115.269 1799.39 112.899C1799.39 112.899 1799.96 108.108 1807.05 94.4322C1813.81 81.3912 1817.78 62.8002 1808.3 40.6902C1798.83 18.5802 1755.2 15.9512 1755.2 15.9512C1755.2 15.9512 1678.6 104.851 1678.6 109.192C1678.6 113.533 1686.68 116.468 1698.52 112.52C1710.37 108.572 1729.16 88.8282 1751.25 99.1932C1779.28 112.352 1755.27 177.487 1755.27 186.57Z" fill="#003D55"/>
</g>
</g>
</g>
<defs>
<clipPath id="clip0_12_27">
<rect width="872" height="721" fill="white" transform="translate(1028)"/>
</clipPath>
</defs>
</svg>
